<?xml version="1.0" encoding="UTF-8"?><svg id="Calque_2" xmlns="http://www.w3.org/2000/svg" viewBox="0 0 585.91 125.51"><defs><style>.cls-1{fill:#e63027;}.cls-1,.cls-2{fill-rule:evenodd;}.cls-2{fill:#1d1d1b;}</style></defs><g id="Layer_1"><g><path class="cls-1" d="m56.37,12.55V.02H0v12.54h19.31v54.51h17.46V12.55h19.59Zm217.26,54.51c-.46-4.46-.74-7.89-.74-10.21v-22.56c0-9.38-6.87-15.23-15.97-15.23-6.59.09-12.35,3.06-15.51,8.26-1.95-5.2-7.71-7.99-13.09-7.99-6.5,0-11.98,2.14-15.04,7.99l-.37-6.97h-15.97v46.71h16.53v-28.14c0-1.49-.65-9.47,6.97-9.47,5.11,0,6.31,4.55,6.31,9.01v28.6h16.44v-28.14c0-1.49-.65-9.47,6.96-9.47,5.11,0,6.32,4.55,6.32,9.01v28.6h17.18Zm-80.5-32.97v-14.21c-7.15-.09-12.63,2.23-14.76,9.38l-.37-8.92h-16.53c.37,3.81.37,8.92.37,11.98v34.73h16.53v-20.43c0-7.71,2.23-12.44,11.33-12.63,1.11,0,2.23,0,3.43.09h0Zm108.98-15.04c-15.23,0-25.16,8.45-25.16,24.51s10.03,24.8,25.16,24.8,25.17-8.26,25.17-24.8-9.94-24.51-25.17-24.51h0Zm0,9.84c6.96,0,8.26,7.15,8.26,14.49,0,8.54-1.48,15.23-8.26,15.23s-8.26-6.68-8.26-15.23c0-7.43,1.3-14.58,8.26-14.58v.09h0Zm-194.83,38.16c-.46-4.46-.65-7.61-.65-10.21v-22.56c0-9.38-6.96-15.23-16.06-15.23-2.79,0-5.48.46-7.8,1.48-2.14,1.02-4.18,2.51-5.94,4.74V.01h-16.53v67.05h16.53v-28.14c0-1.49-.65-9.47,6.96-9.47,5.2,0,6.32,4.55,6.32,9.01v28.6h17.18Zm50.52-20.15c.09-16.81-4.92-27.86-23.59-27.86-14.77,0-23.59,9.1-23.59,23.31,0,17.46,6.22,26,24.42,26,5.66,0,10.68-1.3,14.49-3.9,4.08-2.69,7.43-6.96,7.89-12.82h-15.6c-.46,4.27-2.97,7.15-7.89,7.15-6.32,0-7.61-6.04-7.52-11.89h31.39Zm-15.79-9.01h-15.32c.37-4.92,1.49-9.94,7.61-10.21,2.79-.09,4.64,1.21,5.85,3.25,1.3,1.95,1.86,4.55,1.86,7.06v-.09h0Z"/><path class="cls-1" d="m585.91,33.26v-14.21c-7.15-.09-12.63,2.23-14.76,9.38l-.37-8.08h-16.53c.37,3.81.37,8.92.37,11.98v34.73h16.53v-20.43c0-7.71,2.23-13.28,11.33-13.46,1.11,0,2.23,0,3.43.09h0Zm-85.98,33.8c-.46-4.46-.65-7.61-.65-10.21v-22.56c0-9.38-6.96-15.23-16.06-15.23-2.79,0-5.29.46-7.61,1.48-2.14,1.02-4.37,2.51-6.13,4.74V.02h-16.53v67.05h16.53v-28.14c0-1.49-.65-9.47,6.96-9.47,5.2,0,6.32,4.55,6.32,9.01v28.6h17.18Zm-51.04-13.93c0-7.24-3.81-10.77-9.1-12.72-9.94-3.53-17.37-3.71-17.37-7.43,0-2.79,1.58-4.36,4.27-4.36,2.13,0,3.53.56,4.46,1.49.84.93,1.21,2.41,1.21,4.46h15.69c-.37-12.26-10.03-15.51-20.62-15.51-9.01,0-20.71,3.16-20.71,14.39,0,16.34,26.47,12.07,26.47,20.8,0,3.06-2.51,4.46-5.76,4.46-1.86,0-3.34-.93-4.27-2.23-.93-1.21-1.3-2.97-1.02-4.55h-15.79c-.28,13.93,10.03,16.44,21.45,16.44,10.68,0,21.08-3.9,21.08-15.23h0Zm101.65-6.22c.09-16.81-4.92-27.86-23.59-27.86-14.77,0-23.59,9.1-23.59,23.31,0,17.46,6.22,26,24.42,26,5.66,0,10.68-1.3,14.49-3.9,4.08-2.69,7.43-6.96,7.89-12.82h-15.6c-.46,4.27-2.97,7.15-7.89,7.15-6.32,0-7.61-6.04-7.52-11.89h31.39Zm-15.79-9.01h-15.32c.37-4.92,1.49-9.94,7.61-10.21,2.79-.09,4.64,1.21,5.85,3.25,1.3,1.95,1.86,4.55,1.86,7.06v-.09h0Zm-132.61,29.16V20.35h-16.53v46.71h16.53Zm-21.67-54.7L384.37.02h-44.42v67.05h17.46v-26.37h14.1l3.89-12.35h-17.99v-15.97h23.06Zm21.66-.03l3.93-12.33h-16.33l-3.93,12.33h16.33Z"/><path class="cls-2" d="m151.67,124.71v-38.01h6.07v38.01h-6.07Zm408.14.65c-12.66,0-22.14-7.02-22.14-19.37s10.63-20.09,22.53-20.09c4.25,0,8.94,1.4,11.93,3.33l-3.11,3.7c-2.68-1.49-5.58-2.46-8.74-2.49-4.55-.04-9.03,1.33-12.06,4.64-2.47,2.7-3.84,6.21-3.84,11.12,0,5.34,1.64,8.26,4.51,11.09,2.9,2.87,7.34,3.66,11.7,3.66,3.48,0,6.92-1.3,9.61-2.72l2.95,3.56c-3.08,2.08-8.32,3.56-13.36,3.56h0Zm-63.75-.65v-38.01h6.07v38.01h-6.07Zm-137.07-33.47h-14.16v33.47h-5.91v-33.47h-14.06v-4.54h34.79l-.66,4.54h0ZM43.19,123.36c-2.89,1.45-6.52,2.15-10.71,2.15-5.38,0-10.84-1.19-15.38-3.43l2.51-4.3c4.41,2.2,8.6,3.19,13.26,3.19,3.04,0,5.05-.52,6.91-1.54,2.18-1.19,3.35-2.82,3.35-4.92,0-3.17-2.44-5.15-8.31-6.52l-6.19-1.44c-6.15-1.43-10.02-5.28-10.02-9.78,0-6.49,6.37-11.07,15.45-11.07,5.3,0,10.96,1.33,14.58,3.62l-2.74,3.97c-3.71-2.05-7.58-3.04-11.53-3.04-5.4,0-9.15,2.1-9.15,5.66,0,2.75,2.28,4.38,7.6,5.66l5.71,1.37c3.25.78,6.54,2.15,8.41,3.85,1.79,1.63,2.96,4.25,2.96,6.79,0,3.89-2.48,7.67-6.72,9.79h0Zm243.49,1.35l-15.1-20.27c-2.83-3.8-7.61-11.22-7.61-11.22,0,0,.54,6.42.58,12.04l.14,19.44h-6.03v-38.01h7.19l15.26,20.7c2.97,4.03,7.1,10.42,7.1,10.42,0,0-.9-7.01-.94-12.05l-.14-19.08h5.99v38.01h-6.43Zm104.14,0v-38.01h6.07v38.01h-6.07Zm72.17-33.54h-20.85v11.25h17.64v4.47h-17.64v17.82h-6.07v-38.01h27.72l-.81,4.47h0Zm-266.06,33.54v-38.01h28.03l-.81,4.54h-21.16v11.32h18.03v4.54h-17.95v12.84h22.63v4.76h-28.78Zm-92.1.65c-12.66,0-22.14-7.02-22.14-19.37s10.63-20.09,22.53-20.09c4.25,0,8.94,1.4,11.93,3.33l-3.11,3.7c-2.68-1.49-5.58-2.46-8.74-2.49-4.55-.04-9.03,1.33-12.06,4.64-2.47,2.7-3.84,6.21-3.84,11.12,0,5.34,1.64,8.26,4.51,11.09,2.9,2.87,7.34,3.66,11.7,3.66,3.48,0,6.92-1.3,9.61-2.72l2.95,3.56c-3.08,2.08-8.31,3.56-13.36,3.56h0Z"/></g></g></svg>